<?xml version="1.0" standalone="no"?>
<!DOCTYPE svg PUBLIC "-//W3C//DTD SVG 20010904//EN"
 "http://www.w3.org/TR/2001/REC-SVG-20010904/DTD/svg10.dtd">
<svg version="1.0" xmlns="http://www.w3.org/2000/svg"
 width="209.000000pt" height="48.000000pt" viewBox="0 0 209.000000 48.000000"
 preserveAspectRatio="xMidYMid meet">
<metadata>
Created by potrace 1.10, written by Peter Selinger 2001-2011
</metadata>
<g transform="translate(0.000000,48.000000) scale(0.100000,-0.100000)"
fill="none" stroke="none">
<path d="M132 471 c-11 -6 -9 -9 6 -13 15 -4 19 -2 15 8 -6 16 -4 16 -21 5z"/>
<path d="M438 463 c7 -3 16 -2 19 1 4 3 -2 6 -13 5 -11 0 -14 -3 -6 -6z"/>
<path d="M1048 463 c7 -3 16 -2 19 1 4 3 -2 6 -13 5 -11 0 -14 -3 -6 -6z"/>
<path d="M266 427 c5 -15 -3 -16 -70 -14 -42 2 -76 -1 -76 -6 0 -4 -4 -6 -9
-2 -5 3 -12 1 -16 -5 -3 -6 -18 -8 -32 -5 -18 3 -23 1 -16 -6 5 -5 8 -21 5
-35 -3 -19 -7 -22 -18 -13 -10 8 -11 6 -1 -14 13 -29 24 -26 38 10 7 18 6 30
-3 42 -11 14 -11 14 2 4 12 -9 21 -8 40 2 28 16 325 21 348 7 18 -12 33 -70
20 -78 -7 -4 -8 -2 -4 4 4 7 -8 2 -27 -11 l-33 -22 23 -18 c65 -52 -20 -144
-109 -118 -32 9 -32 9 17 10 55 1 67 6 83 37 16 30 -6 66 -48 81 -19 7 -30 13
-25 14 6 1 15 3 20 4 6 2 18 3 28 4 49 3 69 76 23 86 -19 4 -64 1 -76 -5 -3
-1 -32 -1 -66 0 l-60 2 -27 -89 c-15 -48 -28 -100 -29 -115 -2 -29 -30 -39
-44 -16 -4 7 -3 8 4 4 8 -4 12 0 12 12 0 10 11 52 25 93 14 40 23 80 20 87 -2
7 -1 10 4 7 5 -3 12 -1 16 5 8 13 -70 13 -96 0 -10 -6 -19 -20 -19 -31 0 -11
-7 -22 -15 -25 -17 -7 -20 -24 -4 -24 13 0 33 21 37 40 2 8 8 17 13 18 5 2 6
8 3 14 -4 6 4 8 17 6 25 -3 33 -32 16 -55 -5 -7 -5 -18 -1 -24 4 -8 3 -9 -4
-5 -8 5 -12 0 -12 -13 0 -31 -1 -35 -11 -47 -5 -6 -7 -19 -3 -28 3 -9 1 -16
-5 -16 -17 0 -13 -27 5 -34 9 -3 27 -6 40 -6 13 0 24 -6 25 -12 0 -7 7 1 15
17 8 18 11 45 8 68 -4 24 -2 37 5 37 9 0 9 5 1 21 -6 11 -9 28 -7 37 4 16 5
16 6 0 0 -10 6 -18 11 -18 7 0 7 7 0 20 -14 26 -3 70 12 49 7 -11 11 -11 15
-1 2 6 12 12 21 12 15 0 15 -2 2 -10 -11 -7 -2 -10 32 -10 28 0 48 5 51 13 3
8 10 6 20 -8 16 -20 16 -20 12 3 -5 26 19 31 29 6 12 -32 -3 -54 -33 -48 -21
4 -30 1 -35 -11 -3 -9 -12 -15 -20 -12 -15 6 -16 -17 -1 -30 4 -4 5 -2 1 5 -9
14 10 17 19 2 4 -6 11 -7 17 -4 7 5 8 2 3 -6 -6 -9 -4 -12 6 -8 22 8 37 -14
28 -40 -9 -23 -14 -26 -62 -37 -21 -4 -27 -3 -21 6 4 7 -4 4 -18 -7 -22 -16
-23 -20 -10 -30 9 -7 23 -9 31 -6 9 3 12 1 7 -6 -5 -8 3 -12 24 -12 20 0 29 4
24 11 -4 8 1 9 16 4 16 -5 26 -1 37 14 8 12 19 19 24 16 5 -3 6 1 3 9 -3 9 -2
16 2 16 5 0 9 14 9 30 0 17 -4 30 -9 30 -5 0 -6 3 -3 7 4 3 2 12 -4 19 -8 10
-5 16 15 25 19 9 26 20 26 41 0 15 0 30 0 33 0 3 -2 5 -5 5 -3 0 -12 5 -19 12
-10 9 -11 17 -4 26 6 7 8 15 4 19 -3 3 -6 1 -6 -5 0 -14 -70 -28 -79 -16 -8
12 -42 14 -35 3 3 -5 -2 -9 -10 -9 -9 0 -16 4 -16 9 0 5 -9 7 -20 4 -11 -3
-27 0 -35 7 -13 11 -14 10 -9 -3z m-65 -222 c-5 -45 -10 -64 -15 -53 -7 15 11
135 19 126 1 -2 -1 -34 -4 -73z"/>
<path d="M1080 425 c-1 -11 -2 -23 -1 -27 0 -4 -7 -4 -16 -1 -11 4 -14 3 -9
-6 6 -9 0 -10 -20 -5 -19 5 -25 4 -20 -4 5 -8 -3 -10 -26 -7 -30 5 -31 5 -9
-5 14 -6 32 -8 40 -4 9 4 19 6 23 6 4 -1 25 5 47 14 32 12 44 13 63 4 l23 -12
-22 21 c-25 23 -52 28 -54 9 -1 -7 -5 -2 -9 12 -7 22 -8 22 -10 5z"/>
<path d="M770 421 c0 -5 -9 -7 -20 -4 -14 4 -20 0 -20 -11 0 -10 -4 -15 -8
-12 -5 3 -22 -8 -37 -24 -16 -17 -26 -30 -22 -30 3 0 -5 -12 -18 -26 -19 -21
-22 -30 -14 -40 9 -10 9 -14 0 -14 -6 0 -11 -13 -11 -30 0 -17 5 -30 13 -30 9
0 8 -3 -2 -9 -11 -7 -9 -11 8 -21 19 -10 20 -14 10 -28 -11 -14 -11 -15 1 -5
16 15 34 17 25 4 -3 -6 11 -13 32 -16 21 -3 46 -8 56 -10 15 -3 16 -1 6 12 -7
8 -23 13 -36 10 -13 -2 -21 -2 -19 1 3 3 -9 12 -27 21 -31 15 -32 18 -32 76 0
44 6 69 20 90 11 17 18 34 17 38 -1 5 2 6 7 3 5 -3 14 1 21 9 7 8 17 15 23 15
6 0 -1 -12 -15 -27 -33 -36 -44 -59 -52 -108 -6 -34 -3 -46 15 -69 20 -26 27
-28 72 -23 27 2 53 11 58 18 7 11 9 10 9 -3 0 -10 -4 -18 -10 -18 -5 0 -10 -4
-10 -10 0 -15 30 -12 30 3 0 6 6 3 12 -8 6 -11 12 -22 14 -24 7 -9 50 36 46
48 -3 8 0 11 7 7 6 -4 11 -3 11 3 0 5 -4 13 -10 16 -5 3 -10 1 -10 -6 0 -7 -3
-10 -6 -7 -7 8 34 94 52 109 7 6 11 16 7 23 -3 6 -3 8 2 4 4 -4 15 -3 24 2 10
5 23 5 31 0 12 -8 12 -16 1 -57 -8 -26 -15 -58 -15 -70 -1 -13 -5 -23 -9 -23
-5 0 -5 -4 -2 -10 3 -5 0 -10 -8 -10 -8 0 -17 -7 -21 -15 -8 -21 4 -19 39 9
25 20 27 26 16 39 -11 14 -8 24 16 69 15 29 39 58 51 64 17 8 20 13 10 17 -7
3 -3 6 10 6 12 1 22 6 22 11 0 6 8 10 17 10 12 0 14 3 6 11 -8 8 -25 8 -63 -2
-46 -12 -49 -14 -28 -22 14 -6 18 -11 10 -14 -6 -3 -10 -9 -6 -14 3 -5 -2 -9
-11 -9 -11 0 -15 5 -12 14 7 17 -13 26 -56 26 -25 0 -29 -3 -17 -11 11 -8 6
-9 -21 -5 -20 4 -48 2 -62 -3 -23 -9 -24 -13 -17 -45 5 -24 4 -34 -3 -29 -6 4
-8 -4 -3 -23 4 -17 3 -24 -2 -16 -12 18 -49 23 -49 6 0 -10 4 -11 14 -3 10 9
15 6 22 -12 10 -28 2 -48 -11 -26 -9 16 -37 13 -49 -6 -4 -5 -13 -6 -20 -1 -8
5 -21 9 -29 11 -43 6 -52 103 -16 158 25 39 29 25 6 -20 -31 -62 -26 -101 16
-123 19 -10 23 -9 27 8 3 11 0 23 -5 27 -6 3 -8 1 -4 -5 11 -18 -10 -22 -25
-4 -18 23 -25 57 -8 47 9 -6 10 -1 7 19 -3 14 -1 26 4 26 5 0 7 4 4 9 -3 5 1
11 9 15 17 6 29 -9 19 -26 -6 -10 -4 -10 7 -1 9 10 10 16 2 24 -19 19 -4 40
18 28 10 -5 19 -7 19 -3 0 3 6 1 14 -5 22 -19 56 -22 49 -5 -3 8 -1 14 5 14 5
0 13 7 16 16 3 8 2 13 -3 9 -5 -3 -17 2 -25 11 -9 9 -23 13 -32 10 -8 -3 -12
-2 -9 4 4 6 -9 10 -29 10 -20 0 -36 -4 -36 -9z m68 -23 c23 -6 42 -12 42 -13
0 -2 -3 -11 -6 -20 -6 -14 -8 -13 -21 5 -20 28 -103 25 -86 -4 3 -6 2 -8 -2
-3 -5 4 -10 15 -12 25 -3 22 24 25 85 10z m77 -137 c-13 -39 -21 -79 -18 -89
3 -14 -2 -21 -16 -25 -26 -6 -26 -4 -1 75 24 78 25 88 3 89 -15 1 17 12 49 18
4 0 -4 -30 -17 -68z"/>
<path d="M21 383 c7 -12 15 -20 18 -17 3 2 -3 12 -13 22 -17 16 -18 16 -5 -5z"/>
<path d="M1850 394 c0 -13 18 -39 24 -34 2 3 -2 14 -10 24 -8 11 -14 16 -14
10z"/>
<path d="M1886 387 c3 -10 9 -15 12 -12 3 3 0 11 -7 18 -10 9 -11 8 -5 -6z"/>
<path d="M1956 387 c3 -10 9 -15 12 -12 3 3 0 11 -7 18 -10 9 -11 8 -5 -6z"/>
<path d="M650 370 c-6 -11 -8 -20 -6 -20 3 0 10 9 16 20 6 11 8 20 6 20 -3 0
-10 -9 -16 -20z"/>
<path d="M1565 380 c-3 -5 -1 -10 4 -10 6 0 11 5 11 10 0 6 -2 10 -4 10 -3 0
-8 -4 -11 -10z"/>
<path d="M1915 380 c-3 -5 -1 -10 4 -10 6 0 11 5 11 10 0 6 -2 10 -4 10 -3 0
-8 -4 -11 -10z"/>
<path d="M1257 360 c3 -11 9 -22 13 -25 5 -3 6 4 3 15 -3 11 -9 22 -13 25 -5
3 -6 -4 -3 -15z"/>
<path d="M913 353 c9 -2 23 -2 30 0 6 3 -1 5 -18 5 -16 0 -22 -2 -12 -5z"/>
<path d="M1210 348 c0 -11 -5 -15 -14 -12 -7 3 -21 -2 -30 -11 -14 -14 -16
-15 -16 -1 0 10 -6 13 -15 10 -12 -5 -13 -10 -4 -20 10 -12 2 -48 -29 -131 -8
-22 21 -14 51 15 l29 27 -5 -32 c-3 -21 0 -36 9 -44 8 -6 14 -8 14 -3 0 5 7 1
15 -10 7 -10 19 -15 25 -11 16 10 7 -18 -10 -32 -8 -6 -12 -15 -8 -19 16 -15
39 23 68 112 16 52 30 103 30 114 0 11 7 20 15 20 8 0 15 6 15 13 0 8 3 7 10
-3 5 -8 5 -17 1 -20 -11 -7 -53 -141 -46 -148 3 -3 16 5 30 18 14 13 27 21 31
18 3 -3 -7 -14 -21 -25 -15 -10 -33 -25 -40 -33 -76 -84 -84 -90 -115 -90 -56
0 -89 34 -62 65 5 6 13 22 19 36 10 24 9 26 -6 22 -10 -2 -18 -11 -19 -19 -1
-8 -3 -21 -4 -29 -1 -10 -5 -12 -11 -6 -7 7 -6 15 2 24 9 12 7 13 -13 10 -17
-4 -28 2 -40 18 -16 23 -16 23 -16 2 0 -11 7 -24 16 -27 9 -3 14 -12 11 -19
-3 -9 3 -13 15 -13 12 1 22 -6 23 -17 2 -9 -2 -17 -8 -17 -7 0 -5 -6 4 -13 9
-7 14 -17 12 -24 -6 -18 13 -24 42 -13 17 7 24 7 20 0 -3 -6 1 -10 10 -10 9 0
14 -4 11 -8 -3 -5 1 -9 9 -9 13 0 13 3 0 17 -14 16 -14 17 11 14 15 -1 31 -9
35 -16 5 -7 9 -8 9 -3 0 6 -6 17 -12 24 -11 10 -9 12 7 9 12 -2 20 3 20 11 0
8 6 16 14 19 8 3 11 0 7 -7 -4 -6 -4 -11 1 -10 4 1 25 -5 45 -14 20 -9 44 -14
53 -11 9 4 23 0 33 -8 9 -8 24 -18 32 -22 8 -4 5 1 -8 11 l-24 19 41 28 c28
19 38 33 36 47 -2 11 0 17 5 14 5 -3 11 -1 15 5 4 6 10 8 15 5 9 -5 22 20 14
28 -9 9 -64 -24 -64 -38 0 -7 -13 -27 -29 -44 -39 -42 -100 -44 -137 -4 -25
27 -27 48 -5 48 7 0 20 9 29 20 9 11 16 18 14 16 -1 -2 5 -13 15 -23 17 -18
43 -25 43 -10 0 5 6 9 13 9 8 0 14 -6 14 -14 0 -7 -4 -13 -8 -13 -4 0 -10 -9
-14 -19 -4 -12 -14 -18 -30 -17 -25 1 -42 27 -30 46 10 16 -11 12 -25 -5 -21
-25 14 -56 57 -51 46 5 52 12 83 106 27 83 29 127 3 137 -27 10 -83 -65 -83
-111 0 -31 24 -35 52 -9 11 10 18 12 18 4 0 -7 -13 -20 -30 -29 -16 -9 -30
-21 -30 -25 0 -19 -27 20 -32 46 -6 32 41 112 77 131 11 6 23 15 26 19 3 5 13
-7 22 -25 14 -28 17 -30 17 -10 0 13 6 22 15 22 19 0 19 8 -9 -80 -14 -41 -23
-76 -21 -78 2 -2 13 1 24 7 17 9 19 16 11 36 -6 16 -6 25 0 25 5 0 6 7 3 17
-4 9 -2 14 3 10 5 -3 14 10 20 28 6 19 7 32 3 30 -4 -3 -9 0 -11 5 -2 6 -14
12 -28 12 -14 1 -28 6 -31 11 -7 10 -59 -2 -59 -13 0 -4 -15 -23 -34 -42 -34
-34 -34 -34 -45 -12 -7 16 -7 24 1 26 18 6 -10 48 -32 48 -10 0 -22 -9 -25
-20 -3 -11 -11 -20 -16 -20 -6 0 -7 -9 -4 -21 5 -15 4 -19 -5 -14 -9 6 -9 3
-1 -14 7 -12 8 -21 2 -21 -5 0 -12 6 -14 13 -4 9 -6 9 -6 0 -1 -6 4 -15 9 -18
6 -3 10 -11 10 -17 0 -7 -4 -7 -13 1 -10 7 -17 7 -24 0 -10 -10 -9 43 1 94 2
9 0 15 -4 12 -5 -3 -16 5 -24 17 -13 18 -16 19 -16 6z m14 -65 c3 -21 6 -55 6
-75 0 -28 4 -38 16 -38 12 0 14 3 6 13 -7 8 -6 16 3 24 19 17 29 -1 15 -27
-12 -22 -47 -44 -53 -33 -9 16 -20 89 -18 120 2 21 -3 35 -16 42 -16 9 -15 10
8 11 23 0 27 -5 33 -37z m-54 6 c0 -5 5 -7 10 -4 6 4 10 -5 10 -20 0 -18 -4
-24 -12 -19 -9 6 -9 3 0 -9 12 -14 11 -16 -7 -12 -12 2 -19 0 -16 -5 3 -5 1
-11 -4 -14 -5 -3 -11 3 -14 14 -3 11 -1 20 5 20 6 0 8 7 4 15 -3 8 -1 15 5 15
6 0 9 7 5 15 -3 8 -1 15 4 15 6 0 10 -5 10 -11z m330 -15 c0 -8 -4 -13 -9 -10
-5 3 -12 -1 -15 -10 -3 -8 -2 -13 3 -10 5 3 9 -6 9 -19 0 -22 -3 -24 -16 -13
-11 9 -13 9 -9 1 4 -7 -1 -14 -14 -18 -24 -8 -39 2 -21 14 8 4 10 15 6 26 -6
14 -4 16 6 10 10 -6 12 -4 7 9 -4 10 -3 15 3 11 6 -3 10 -2 10 4 0 5 8 12 18
14 9 3 18 5 20 6 1 0 2 -6 2 -15z m-126 -21 c4 -9 0 -23 -7 -31 -12 -12 -15
-11 -20 2 -4 9 -2 16 4 16 6 0 9 7 5 15 -3 8 -1 15 3 15 5 0 12 -8 15 -17z
m-177 -95 c-3 -8 -6 -5 -6 6 -1 11 2 17 5 13 3 -3 4 -12 1 -19z m-52 -118 c3
-5 1 -10 -4 -10 -6 0 -11 5 -11 10 0 6 2 10 4 10 3 0 8 -4 11 -10z"/>
<path d="M1648 352 c-10 -2 -18 -8 -18 -13 0 -5 -7 -9 -15 -9 -18 0 -18 -1 -5
-36 9 -22 8 -25 -3 -16 -10 8 -13 7 -14 -6 -3 -35 -10 -56 -21 -60 -7 -2 -12
-8 -12 -14 0 -6 7 -4 17 3 15 13 15 12 3 -10 -11 -21 -10 -26 4 -36 8 -7 14
-15 11 -18 -3 -4 -2 -5 1 -2 4 2 13 -2 21 -10 12 -12 16 -12 33 3 26 21 26 36
1 22 -33 -17 -52 -2 -48 39 2 20 9 49 16 64 14 37 14 54 -1 60 -7 3 -1 6 13 6
15 1 30 8 33 17 8 20 6 21 -16 16z"/>
<path d="M1760 339 c0 -5 -4 -8 -8 -5 -5 3 -19 -4 -30 -15 -27 -24 -28 -30 -4
-22 16 6 16 5 -1 -14 -10 -12 -20 -28 -21 -37 -4 -31 -56 -73 -56 -45 0 5 4 8
9 4 5 -3 12 -1 16 5 3 5 0 10 -7 10 -10 0 -11 2 0 8 8 5 10 16 6 27 -6 14 -4
16 6 10 10 -6 12 -3 8 13 -3 12 -2 22 3 24 5 2 4 9 0 17 -7 10 -16 -9 -34 -65
-30 -97 -20 -116 29 -60 36 42 48 36 14 -7 -18 -23 -19 -27 -4 -35 9 -5 17
-13 17 -18 1 -5 12 -9 24 -9 12 1 20 -3 17 -6 -2 -4 0 -11 6 -14 6 -4 10 -3 9
2 -6 34 22 50 46 27 8 -9 15 -11 15 -6 0 6 11 9 24 8 16 -2 23 1 19 9 -2 7 1
16 8 21 7 4 10 3 6 -3 -4 -6 0 -14 9 -17 10 -4 13 -13 9 -28 -6 -22 -5 -22 7
-3 7 11 19 20 26 21 27 2 31 5 37 25 5 15 10 17 20 9 9 -8 15 -8 20 0 3 5 3
10 -1 10 -3 0 1 12 11 26 27 42 11 37 -37 -11 -78 -78 -101 -58 -64 53 28 82
21 91 -9 11 -24 -62 -65 -109 -95 -109 -11 0 -18 5 -15 10 3 5 14 10 24 10 10
0 24 7 31 15 10 12 9 15 -4 15 -10 0 -15 -4 -12 -8 2 -4 -4 -8 -14 -8 -10 0
-16 5 -13 11 3 5 -7 -2 -23 -16 -35 -32 -73 -53 -82 -45 -3 3 1 6 9 6 10 1 8
5 -5 15 -11 8 -15 15 -9 15 6 0 13 10 16 23 23 93 30 114 48 130 24 23 24 18
-5 -73 -13 -41 -22 -79 -18 -84 3 -5 18 7 35 27 30 38 47 47 47 24 0 -15 52
-15 57 0 2 6 -7 8 -21 6 -18 -4 -28 0 -32 11 -3 9 -10 13 -15 10 -5 -3 -1 10
9 28 18 33 84 74 90 57 2 -5 15 -6 29 -2 21 5 25 3 21 -9 -18 -45 -40 -140
-34 -145 7 -7 86 66 86 79 0 4 -5 8 -11 8 -5 0 -8 -4 -4 -9 3 -5 -4 -17 -16
-25 -22 -15 -39 -13 -39 5 0 6 5 7 12 3 8 -5 9 0 6 14 -4 14 -2 20 5 15 6 -4
8 2 5 15 -4 12 -2 20 3 16 11 -7 11 -1 0 28 -7 18 -17 24 -47 26 -22 2 -41 -2
-46 -10 -6 -11 -10 -10 -17 1 -7 11 -10 9 -16 -8 -3 -11 -15 -26 -26 -32 -11
-5 -17 -14 -14 -20 4 -5 1 -9 -6 -9 -6 0 -9 -8 -6 -20 6 -24 -18 -48 -27 -25
-3 8 -1 15 4 15 5 0 7 7 4 15 -4 8 -1 15 6 15 7 0 10 8 7 20 -3 13 -1 18 6 13
7 -4 8 0 4 11 -4 10 -7 22 -7 27 0 5 -7 9 -15 9 -8 0 -15 -5 -15 -11z m10
-133 c0 -3 -4 -8 -10 -11 -5 -3 -10 -1 -10 4 0 6 5 11 10 11 6 0 10 -2 10 -4z
m227 -21 c0 -8 -4 -12 -9 -9 -5 3 -6 10 -3 15 9 13 12 11 12 -6z"/>
<path d="M961 284 c-19 -25 -23 -33 -20 -50 0 -4 -5 -10 -12 -15 -8 -4 -10
-11 -6 -16 9 -9 28 17 21 29 -3 4 0 8 6 8 6 0 8 5 5 10 -3 6 -1 10 5 10 6 0 9
4 5 9 -3 5 -1 12 4 15 5 4 12 2 15 -3 4 -5 2 -12 -4 -16 -6 -4 -8 -10 -5 -15
3 -5 1 -11 -4 -15 -6 -3 -8 -12 -4 -20 3 -8 0 -15 -7 -15 -7 0 -10 -7 -6 -15
3 -8 1 -15 -4 -15 -6 0 -10 -8 -10 -17 0 -15 2 -15 14 -3 16 17 56 141 49 153
-8 13 -21 7 -42 -19z"/>
<path d="M1073 288 c-30 -34 -35 -46 -22 -54 8 -4 9 -3 5 4 -4 7 -2 12 4 12 6
0 9 4 5 9 -3 5 0 13 7 17 7 4 10 4 6 -1 -4 -4 -3 -14 3 -22 9 -10 8 -13 -1
-13 -7 0 -10 -7 -6 -15 3 -8 1 -15 -3 -15 -5 0 -7 -10 -3 -22 5 -19 8 -14 23
27 19 55 24 95 11 95 -5 0 -18 -10 -29 -22z"/>
<path d="M1860 300 c0 -5 10 -10 23 -10 20 -1 20 -2 4 -11 -9 -6 -15 -16 -11
-22 3 -7 -3 -1 -14 12 -15 19 -20 21 -25 8 -3 -8 0 -23 7 -33 13 -16 15 -16
40 9 33 34 34 57 1 57 -14 0 -25 -4 -25 -10z"/>
<path d="M2045 280 c3 -5 8 -10 11 -10 2 0 4 5 4 10 0 6 -5 10 -11 10 -5 0 -7
-4 -4 -10z"/>
<path d="M2020 260 c0 -5 5 -10 11 -10 5 0 7 5 4 10 -3 6 -8 10 -11 10 -2 0
-4 -4 -4 -10z"/>
<path d="M2053 242 c2 -12 6 -24 10 -28 3 -4 4 4 2 16 -6 30 -16 40 -12 12z"/>
<path d="M87 229 c7 -7 15 -10 18 -7 3 3 -2 9 -12 12 -14 6 -15 5 -6 -5z"/>
<path d="M1026 213 c-4 -9 -1 -21 5 -27 9 -8 10 -7 6 6 -3 9 -1 18 6 21 8 2 8
5 0 10 -6 4 -14 -1 -17 -10z"/>
<path d="M2026 182 c-2 -4 9 -7 25 -7 31 -1 30 7 -1 12 -10 1 -21 -1 -24 -5z"/>
<path d="M782 136 c7 -8 16 -12 21 -9 11 7 -2 23 -19 23 -12 0 -12 -2 -2 -14z"/>
<path d="M1161 144 c2 -5 -1 -20 -5 -33 -6 -19 -4 -28 10 -38 21 -16 58 -18
49 -2 -4 6 -14 8 -22 4 -13 -4 -14 -3 -4 9 10 12 8 13 -11 9 -22 -6 -22 -6 -5
14 16 18 16 21 2 33 -9 7 -15 9 -14 4z"/>
<path d="M234 129 c-3 -6 2 -18 12 -27 17 -16 17 -16 5 0 -7 9 -10 22 -6 28 3
5 4 10 1 10 -3 0 -8 -5 -12 -11z"/>
<path d="M138 123 c7 -3 16 -2 19 1 4 3 -2 6 -13 5 -11 0 -14 -3 -6 -6z"/>
<path d="M836 113 c-6 -14 -5 -15 5 -6 7 7 10 15 7 18 -3 3 -9 -2 -12 -12z"/>
<path d="M1051 104 c0 -11 3 -14 6 -6 3 7 2 16 -1 19 -3 4 -6 -2 -5 -13z"/>
<path d="M1607 99 c7 -7 15 -10 18 -7 3 3 -2 9 -12 12 -14 6 -15 5 -6 -5z"/>
<path d="M807 89 c7 -7 15 -10 18 -7 3 3 -2 9 -12 12 -14 6 -15 5 -6 -5z"/>
<path d="M1497 39 c7 -7 15 -10 18 -7 3 3 -2 9 -12 12 -14 6 -15 5 -6 -5z"/>
<path d="M1460 36 c0 -2 7 -7 16 -10 8 -3 12 -2 9 4 -6 10 -25 14 -25 6z"/>
<path d="M1367 19 c7 -7 15 -10 18 -7 3 3 -2 9 -12 12 -14 6 -15 5 -6 -5z"/>
</g>
</svg>
